<svg xmlns="http://www.w3.org/2000/svg" viewBox="0 0 500 500"><g id="freepik--background-simple--inject-157"><path d="M88.12,132.48C131,98,185.81,79.78,240.19,75.31c81.94-6.74,130.33,35.82,131.73,79.81s24.76,91.59,79.29,145.69,42.27,136.22-48.49,163-166.1-10.49-197.3-32.21S109.8,474.51,66.61,453.9C39.12,440.78,27.23,395.2,21,368.78c-11.68-49.33-11.33-102.91,5.68-151C39,182.85,60.78,154.49,88.12,132.48Z" style="fill:#90CAF9"></path><path d="M88.12,132.48C131,98,185.81,79.78,240.19,75.31c81.94-6.74,130.33,35.82,131.73,79.81s24.76,91.59,79.29,145.69,42.27,136.22-48.49,163-166.1-10.49-197.3-32.21S109.8,474.51,66.61,453.9C39.12,440.78,27.23,395.2,21,368.78c-11.68-49.33-11.33-102.91,5.68-151C39,182.85,60.78,154.49,88.12,132.48Z" style="fill:#fff;opacity:0.7000000000000001"></path></g></svg>